<svg width="415" height="415" viewBox="0 0 415 415" fill="none" xmlns="http://www.w3.org/2000/svg">
<rect x="1.5" y="1.5" width="412" height="412" rx="98.5" fill="#A9DBE0"/>
<rect x="1.5" y="1.5" width="412" height="412" rx="98.5" stroke="#A9DBE0" stroke-width="3"/>
<g clip-path="url(#clip0_5_42)">
<path d="M201.076 87.882C204.931 85.139 210.069 85.139 213.924 87.882C221.736 93.264 231.285 96.9445 240.833 96.9445C250.174 96.9445 260.069 93.1945 267.708 87.882C271.84 84.9306 277.465 85.1737 281.319 88.4723C286.319 92.6042 292.604 95.764 298.889 97.2223C304.861 98.6112 308.576 104.583 307.187 110.556C305.799 116.528 299.826 120.243 293.854 118.854C285.347 116.875 278.264 113.125 273.646 110.174C263.576 115.59 252.292 119.167 240.833 119.167C229.757 119.167 219.792 115.729 212.917 112.604C210.903 111.667 209.062 110.764 207.5 109.931C205.937 110.764 204.132 111.701 202.083 112.604C195.208 115.729 185.243 119.167 174.167 119.167C162.708 119.167 151.424 115.59 141.354 110.208C136.701 113.125 129.653 116.91 121.146 118.889C115.174 120.278 109.201 116.563 107.812 110.59C106.424 104.618 110.139 98.6459 116.111 97.257C122.361 95.764 128.681 92.6042 133.646 88.4723C137.5 85.1737 143.125 84.9654 147.257 87.882C154.965 93.1945 164.826 96.9445 174.167 96.9445C183.715 96.9445 193.264 93.264 201.076 87.882ZM213.924 187.882C221.736 193.264 231.285 196.945 240.833 196.945C250.174 196.945 260.069 193.195 267.708 187.882C271.84 184.931 277.465 185.174 281.319 188.472C286.319 192.604 292.604 195.764 298.889 197.222C304.861 198.611 308.576 204.583 307.187 210.556C305.799 216.528 299.826 220.243 293.854 218.854C285.347 216.875 278.264 213.125 273.646 210.174C263.576 215.59 252.292 219.167 240.833 219.167C229.757 219.167 219.792 215.729 212.917 212.604C210.903 211.667 209.062 210.764 207.5 209.931C205.937 210.764 204.132 211.701 202.083 212.604C195.208 215.729 185.243 219.167 174.167 219.167C162.708 219.167 151.424 215.59 141.354 210.208C136.701 213.125 129.653 216.91 121.146 218.889C115.174 220.278 109.201 216.563 107.812 210.59C106.424 204.618 110.139 198.646 116.111 197.257C122.396 195.799 128.681 192.639 133.681 188.507C137.535 185.243 143.16 185 147.292 187.917C154.965 193.195 164.826 196.945 174.167 196.945C183.715 196.945 193.264 193.264 201.076 187.882C204.931 185.139 210.069 185.139 213.924 187.882ZM213.924 137.882C221.736 143.264 231.285 146.945 240.833 146.945C250.174 146.945 260.069 143.195 267.708 137.882C271.84 134.931 277.465 135.174 281.319 138.472C286.319 142.604 292.604 145.764 298.889 147.222C304.861 148.611 308.576 154.583 307.187 160.556C305.799 166.528 299.826 170.243 293.854 168.854C285.347 166.875 278.264 163.125 273.646 160.174C263.576 165.59 252.292 169.167 240.833 169.167C229.757 169.167 219.792 165.729 212.917 162.604C210.903 161.667 209.062 160.764 207.5 159.931C205.937 160.764 204.132 161.701 202.083 162.604C195.208 165.729 185.243 169.167 174.167 169.167C162.708 169.167 151.424 165.59 141.354 160.208C136.701 163.125 129.653 166.91 121.146 168.889C115.174 170.278 109.201 166.563 107.812 160.59C106.424 154.618 110.139 148.646 116.111 147.257C122.396 145.799 128.681 142.639 133.681 138.507C137.535 135.208 143.16 135 147.292 137.917C154.965 143.195 164.826 146.945 174.167 146.945C183.715 146.945 193.264 143.264 201.076 137.882C204.931 135.139 210.069 135.139 213.924 137.882Z" fill="black"/>
</g>
<path d="M109.3 301.389H116.75L122.45 336.389H116.95L115.95 329.439V329.539H109.7L108.7 336.389H103.6L109.3 301.389ZM115.3 324.789L112.85 307.489H112.75L110.35 324.789H115.3ZM125.118 301.389H133.518C136.252 301.389 138.302 302.122 139.668 303.589C141.035 305.056 141.718 307.206 141.718 310.039V327.739C141.718 330.572 141.035 332.722 139.668 334.189C138.302 335.656 136.252 336.389 133.518 336.389H125.118V301.389ZM133.418 331.389C134.318 331.389 135.002 331.122 135.468 330.589C135.968 330.056 136.218 329.189 136.218 327.989V309.789C136.218 308.589 135.968 307.722 135.468 307.189C135.002 306.656 134.318 306.389 133.418 306.389H130.618V331.389H133.418ZM149.583 301.389H157.033L162.733 336.389H157.233L156.233 329.439V329.539H149.983L148.983 336.389H143.883L149.583 301.389ZM155.583 324.789L153.133 307.489H153.033L150.633 324.789H155.583ZM165.402 301.389H173.502C176.235 301.389 178.285 302.122 179.652 303.589C181.018 305.056 181.702 307.206 181.702 310.039V313.489C181.702 316.322 181.018 318.472 179.652 319.939C178.285 321.406 176.235 322.139 173.502 322.139H170.902V336.389H165.402V301.389ZM173.502 317.139C174.402 317.139 175.068 316.889 175.502 316.389C175.968 315.889 176.202 315.039 176.202 313.839V309.689C176.202 308.489 175.968 307.639 175.502 307.139C175.068 306.639 174.402 306.389 173.502 306.389H170.902V317.139H173.502ZM189.086 306.389H183.336V301.389H200.336V306.389H194.586V336.389H189.086V306.389ZM204.954 301.389H212.404L218.104 336.389H212.604L211.604 329.439V329.539H205.354L204.354 336.389H199.254L204.954 301.389ZM210.954 324.789L208.504 307.489H208.404L206.004 324.789H210.954ZM220.773 301.389H229.073C231.906 301.389 233.973 302.056 235.273 303.389C236.573 304.689 237.223 306.706 237.223 309.439V310.839C237.223 312.639 236.923 314.106 236.323 315.239C235.756 316.372 234.873 317.189 233.673 317.689V317.789C236.406 318.722 237.773 321.156 237.773 325.089V328.089C237.773 330.789 237.056 332.856 235.623 334.289C234.223 335.689 232.156 336.389 229.423 336.389H220.773V301.389ZM228.423 315.639C229.523 315.639 230.339 315.356 230.873 314.789C231.439 314.222 231.723 313.272 231.723 311.939V309.989C231.723 308.722 231.489 307.806 231.023 307.239C230.589 306.672 229.889 306.389 228.923 306.389H226.273V315.639H228.423ZM229.423 331.389C230.389 331.389 231.106 331.139 231.573 330.639C232.039 330.106 232.273 329.206 232.273 327.939V324.889C232.273 323.289 231.989 322.189 231.423 321.589C230.889 320.956 229.989 320.639 228.723 320.639H226.273V331.389H229.423ZM240.988 301.389H246.488V336.389H240.988V301.389ZM250.607 301.389H256.107V331.389H265.157V336.389H250.607V301.389ZM267.794 301.389H273.294V336.389H267.794V301.389ZM281.713 306.389H275.963V301.389H292.963V306.389H287.213V336.389H281.713V306.389ZM295.626 301.389H310.626V306.389H301.126V315.639H308.676V320.639H301.126V331.389H310.626V336.389H295.626V301.389ZM303.626 293.289H309.626L304.276 299.039H300.126L303.626 293.289Z" fill="black"/>
<defs>
<clipPath id="clip0_5_42">
<rect width="200" height="177.778" fill="white" transform="translate(107.5 63.6111)"/>
</clipPath>
</defs>
</svg>
