<svg width="415" height="415" viewBox="0 0 415 415" fill="none" xmlns="http://www.w3.org/2000/svg">
<rect x="1.5" y="1.5" width="412" height="412" rx="98.5" fill="#A9DBE0"/>
<rect x="1.5" y="1.5" width="412" height="412" rx="98.5" stroke="#A9DBE0" stroke-width="3"/>
<g clip-path="url(#clip0_5_32)">
<path d="M254.375 138.438C254.375 151.885 250.01 164.307 242.656 174.385L279.746 211.504C283.408 215.166 283.408 221.113 279.746 224.775C276.084 228.438 270.137 228.438 266.475 224.775L229.385 187.656C219.307 195.039 206.885 199.375 193.438 199.375C159.775 199.375 132.5 172.1 132.5 138.438C132.5 104.775 159.775 77.5 193.438 77.5C227.1 77.5 254.375 104.775 254.375 138.438ZM193.438 180.625C198.978 180.625 204.464 179.534 209.582 177.414C214.7 175.294 219.351 172.186 223.269 168.269C227.186 164.351 230.294 159.7 232.414 154.582C234.534 149.464 235.625 143.978 235.625 138.438C235.625 132.897 234.534 127.411 232.414 122.293C230.294 117.175 227.186 112.524 223.269 108.606C219.351 104.689 214.7 101.581 209.582 99.4613C204.464 97.3412 198.978 96.25 193.438 96.25C187.897 96.25 182.411 97.3412 177.293 99.4613C172.175 101.581 167.524 104.689 163.606 108.606C159.689 112.524 156.581 117.175 154.461 122.293C152.341 127.411 151.25 132.897 151.25 138.438C151.25 143.978 152.341 149.464 154.461 154.582C156.581 159.7 159.689 164.351 163.606 168.269C167.524 172.186 172.175 175.294 177.293 177.414C182.411 179.534 187.897 180.625 193.438 180.625Z" fill="black"/>
</g>
<path d="M140.3 323C137.667 323 135.65 322.25 134.25 320.75C132.883 319.25 132.2 317.133 132.2 314.4V295.6C132.2 292.867 132.883 290.75 134.25 289.25C135.65 287.75 137.667 287 140.3 287C142.933 287 144.933 287.75 146.3 289.25C147.7 290.75 148.4 292.867 148.4 295.6V299.3H143.2V295.25C143.2 293.083 142.283 292 140.45 292C138.617 292 137.7 293.083 137.7 295.25V314.8C137.7 316.933 138.617 318 140.45 318C142.283 318 143.2 316.933 143.2 314.8V309.45H148.4V314.4C148.4 317.133 147.7 319.25 146.3 320.75C144.933 322.25 142.933 323 140.3 323ZM159.691 323C157.024 323 154.991 322.25 153.591 320.75C152.191 319.217 151.491 317.033 151.491 314.2V287.5H156.991V314.6C156.991 315.8 157.224 316.667 157.691 317.2C158.191 317.733 158.891 318 159.791 318C160.691 318 161.374 317.733 161.841 317.2C162.341 316.667 162.591 315.8 162.591 314.6V287.5H167.891V314.2C167.891 317.033 167.191 319.217 165.791 320.75C164.391 322.25 162.357 323 159.691 323ZM171.808 287.5H179.958C182.791 287.5 184.858 288.167 186.158 289.5C187.458 290.8 188.108 292.817 188.108 295.55V297.7C188.108 301.333 186.908 303.633 184.508 304.6V304.7C185.841 305.1 186.774 305.917 187.308 307.15C187.874 308.383 188.158 310.033 188.158 312.1V318.25C188.158 319.25 188.191 320.067 188.258 320.7C188.324 321.3 188.491 321.9 188.758 322.5H183.158C182.958 321.933 182.824 321.4 182.758 320.9C182.691 320.4 182.658 319.5 182.658 318.2V311.8C182.658 310.2 182.391 309.083 181.858 308.45C181.358 307.817 180.474 307.5 179.208 307.5H177.308V322.5H171.808V287.5ZM179.308 302.5C180.408 302.5 181.224 302.217 181.758 301.65C182.324 301.083 182.608 300.133 182.608 298.8V296.1C182.608 294.833 182.374 293.917 181.908 293.35C181.474 292.783 180.774 292.5 179.808 292.5H177.308V302.5H179.308ZM191.974 287.5H197.474V322.5H191.974V287.5ZM209.543 323C206.843 323 204.776 322.233 203.343 320.7C201.91 319.167 201.193 317 201.193 314.2V295.8C201.193 293 201.91 290.833 203.343 289.3C204.776 287.767 206.843 287 209.543 287C212.243 287 214.31 287.767 215.743 289.3C217.176 290.833 217.893 293 217.893 295.8V314.2C217.893 317 217.176 319.167 215.743 320.7C214.31 322.233 212.243 323 209.543 323ZM209.543 318C211.443 318 212.393 316.85 212.393 314.55V295.45C212.393 293.15 211.443 292 209.543 292C207.643 292 206.693 293.15 206.693 295.45V314.55C206.693 316.85 207.643 318 209.543 318ZM228.763 323C226.096 323 224.079 322.25 222.713 320.75C221.346 319.217 220.663 317.033 220.663 314.2V312.2H225.863V314.6C225.863 316.867 226.813 318 228.713 318C229.646 318 230.346 317.733 230.813 317.2C231.313 316.633 231.563 315.733 231.563 314.5C231.563 313.033 231.229 311.75 230.563 310.65C229.896 309.517 228.663 308.167 226.863 306.6C224.596 304.6 223.013 302.8 222.113 301.2C221.213 299.567 220.763 297.733 220.763 295.7C220.763 292.933 221.463 290.8 222.862 289.3C224.263 287.767 226.296 287 228.963 287C231.596 287 233.579 287.767 234.913 289.3C236.279 290.8 236.963 292.967 236.963 295.8V297.25H231.763V295.45C231.763 294.25 231.529 293.383 231.063 292.85C230.596 292.283 229.913 292 229.013 292C227.179 292 226.263 293.117 226.263 295.35C226.263 296.617 226.596 297.8 227.263 298.9C227.963 300 229.213 301.333 231.013 302.9C233.313 304.9 234.896 306.717 235.763 308.35C236.629 309.983 237.063 311.9 237.063 314.1C237.063 316.967 236.346 319.167 234.913 320.7C233.513 322.233 231.463 323 228.763 323ZM240.216 287.5H245.716V322.5H240.216V287.5ZM254.135 292.5H248.385V287.5H265.385V292.5H259.635V322.5H254.135V292.5ZM268.048 287.5H283.048V292.5H273.548V301.75H281.098V306.75H273.548V317.5H283.048V322.5H268.048V287.5ZM276.048 279.4H282.048L276.698 285.15H272.548L276.048 279.4Z" fill="black"/>
<defs>
<clipPath id="clip0_5_32">
<rect width="150" height="150" fill="white" transform="translate(132.5 77.5)"/>
</clipPath>
</defs>
</svg>
