<svg width="415" height="415" viewBox="0 0 415 415" fill="none" xmlns="http://www.w3.org/2000/svg">
<rect x="1.5" y="1.5" width="412" height="412" rx="98.5" fill="#A9DBE0"/>
<rect x="1.5" y="1.5" width="412" height="412" rx="98.5" stroke="#A9DBE0" stroke-width="3"/>
<g clip-path="url(#clip0_5_37)">
<path d="M186.406 77.5C195.459 77.5 202.812 84.8535 202.812 93.9062V211.094C202.812 220.146 195.459 227.5 186.406 227.5C177.939 227.5 170.967 221.084 170.088 212.822C168.564 213.232 166.953 213.438 165.312 213.438C154.971 213.438 146.562 205.029 146.562 194.688C146.562 192.52 146.943 190.41 147.617 188.477C138.77 185.137 132.5 176.582 132.5 166.562C132.5 157.217 137.979 149.131 145.918 145.381C143.369 142.188 141.875 138.145 141.875 133.75C141.875 124.756 148.203 117.256 156.641 115.41C156.172 113.799 155.938 112.07 155.938 110.312C155.938 101.553 161.973 94.1699 170.088 92.1191C170.967 83.916 177.939 77.5 186.406 77.5ZM228.594 77.5C237.061 77.5 244.004 83.916 244.912 92.1191C253.057 94.1699 259.062 101.523 259.062 110.312C259.062 112.07 258.828 113.799 258.359 115.41C266.797 117.227 273.125 124.756 273.125 133.75C273.125 138.145 271.631 142.188 269.082 145.381C277.021 149.131 282.5 157.217 282.5 166.562C282.5 176.582 276.23 185.137 267.383 188.477C268.057 190.41 268.438 192.52 268.438 194.688C268.438 205.029 260.029 213.438 249.688 213.438C248.047 213.438 246.436 213.232 244.912 212.822C244.033 221.084 237.061 227.5 228.594 227.5C219.541 227.5 212.188 220.146 212.188 211.094V93.9062C212.188 84.8535 219.541 77.5 228.594 77.5Z" fill="black"/>
</g>
<path d="M117.05 287.5H122.55V322.5H117.05V287.5ZM126.669 287.5H133.569L138.919 308.45H139.019V287.5H143.919V322.5H138.269L131.669 296.95H131.569V322.5H126.669V287.5ZM155.807 323C153.14 323 151.107 322.25 149.707 320.75C148.307 319.217 147.607 317.033 147.607 314.2V295.8C147.607 292.967 148.307 290.8 149.707 289.3C151.107 287.767 153.14 287 155.807 287C158.474 287 160.507 287.767 161.907 289.3C163.307 290.8 164.007 292.967 164.007 295.8V298.8H158.807V295.45C158.807 293.15 157.857 292 155.957 292C154.057 292 153.107 293.15 153.107 295.45V314.6C153.107 316.867 154.057 318 155.957 318C157.857 318 158.807 316.867 158.807 314.6V307.75H156.057V302.75H164.007V314.2C164.007 317.033 163.307 319.217 161.907 320.75C160.507 322.25 158.474 323 155.807 323ZM167.538 287.5H182.538V292.5H173.038V301.75H180.588V306.75H173.038V317.5H182.538V322.5H167.538V287.5ZM175.538 279.4H181.538L176.188 285.15H172.038L175.538 279.4ZM185.702 287.5H192.602L197.952 308.45H198.052V287.5H202.952V322.5H197.302L190.702 296.95H190.602V322.5H185.702V287.5ZM207.04 287.5H212.54V322.5H207.04V287.5ZM224.609 323C221.909 323 219.843 322.233 218.409 320.7C216.976 319.167 216.259 317 216.259 314.2V295.8C216.259 293 216.976 290.833 218.409 289.3C219.843 287.767 221.909 287 224.609 287C227.309 287 229.376 287.767 230.809 289.3C232.243 290.833 232.959 293 232.959 295.8V314.2C232.959 317 232.243 319.167 230.809 320.7C229.376 322.233 227.309 323 224.609 323ZM224.609 318C226.509 318 227.459 316.85 227.459 314.55V295.45C227.459 293.15 226.509 292 224.609 292C222.709 292 221.759 293.15 221.759 295.45V314.55C221.759 316.85 222.709 318 224.609 318ZM243.829 323C241.162 323 239.146 322.25 237.779 320.75C236.412 319.217 235.729 317.033 235.729 314.2V312.2H240.929V314.6C240.929 316.867 241.879 318 243.779 318C244.712 318 245.412 317.733 245.879 317.2C246.379 316.633 246.629 315.733 246.629 314.5C246.629 313.033 246.296 311.75 245.629 310.65C244.962 309.517 243.729 308.167 241.929 306.6C239.662 304.6 238.079 302.8 237.179 301.2C236.279 299.567 235.829 297.733 235.829 295.7C235.829 292.933 236.529 290.8 237.929 289.3C239.329 287.767 241.362 287 244.029 287C246.662 287 248.646 287.767 249.979 289.3C251.346 290.8 252.029 292.967 252.029 295.8V297.25H246.829V295.45C246.829 294.25 246.596 293.383 246.129 292.85C245.662 292.283 244.979 292 244.079 292C242.246 292 241.329 293.117 241.329 295.35C241.329 296.617 241.662 297.8 242.329 298.9C243.029 300 244.279 301.333 246.079 302.9C248.379 304.9 249.962 306.717 250.829 308.35C251.696 309.983 252.129 311.9 252.129 314.1C252.129 316.967 251.412 319.167 249.979 320.7C248.579 322.233 246.529 323 243.829 323ZM255.282 287.5H260.782V322.5H255.282V287.5ZM269.202 292.5H263.452V287.5H280.452V292.5H274.702V322.5H269.202V292.5ZM283.114 287.5H298.114V292.5H288.614V301.75H296.164V306.75H288.614V317.5H298.114V322.5H283.114V287.5ZM291.114 279.4H297.114L291.764 285.15H287.614L291.114 279.4Z" fill="black"/>
<defs>
<clipPath id="clip0_5_37">
<rect width="150" height="150" fill="white" transform="translate(132.5 77.5)"/>
</clipPath>
</defs>
</svg>
