<svg width="415" height="415" viewBox="0 0 415 415" fill="none" xmlns="http://www.w3.org/2000/svg">
<rect x="1.5" y="1.5" width="412" height="412" rx="98.5" fill="#A9DBE0"/>
<rect x="1.5" y="1.5" width="412" height="412" rx="98.5" stroke="#A9DBE0" stroke-width="3"/>
<g clip-path="url(#clip0_5_23)">
<path d="M178.379 190.264L169.326 181.211C166.836 178.721 165.957 175.117 167.07 171.777C167.949 169.17 169.121 165.771 170.527 161.875H139.531C137.012 161.875 134.668 160.527 133.408 158.33C132.148 156.133 132.178 153.437 133.467 151.269L148.848 125.342C152.656 118.926 159.541 115 166.982 115H191.094C191.797 113.828 192.5 112.744 193.203 111.689C217.197 76.2987 252.939 75.1269 274.268 79.0527C277.666 79.6679 280.303 82.3339 280.947 85.7323C284.873 107.09 283.672 142.803 248.311 166.797C247.285 167.5 246.172 168.203 245 168.906V193.018C245 200.459 241.074 207.373 234.658 211.152L208.73 226.533C206.562 227.822 203.867 227.851 201.67 226.592C199.473 225.332 198.125 223.018 198.125 220.469V189.062C193.994 190.498 190.391 191.67 187.666 192.549C184.385 193.603 180.811 192.695 178.35 190.264H178.379ZM245 126.719C248.108 126.719 251.089 125.484 253.286 123.286C255.484 121.089 256.719 118.108 256.719 115C256.719 111.892 255.484 108.911 253.286 106.714C251.089 104.516 248.108 103.281 245 103.281C241.892 103.281 238.911 104.516 236.714 106.714C234.516 108.911 233.281 111.892 233.281 115C233.281 118.108 234.516 121.089 236.714 123.286C238.911 125.484 241.892 126.719 245 126.719Z" fill="black"/>
</g>
<path d="M119.55 287.5H127.4L130.9 312.55H131L134.5 287.5H142.35V322.5H137.15V296H137.05L133.05 322.5H128.45L124.45 296H124.35V322.5H119.55V287.5ZM154.404 323C151.704 323 149.638 322.233 148.204 320.7C146.771 319.167 146.054 317 146.054 314.2V295.8C146.054 293 146.771 290.833 148.204 289.3C149.638 287.767 151.704 287 154.404 287C157.104 287 159.171 287.767 160.604 289.3C162.038 290.833 162.754 293 162.754 295.8V314.2C162.754 317 162.038 319.167 160.604 320.7C159.171 322.233 157.104 323 154.404 323ZM154.404 318C156.304 318 157.254 316.85 157.254 314.55V295.45C157.254 293.15 156.304 292 154.404 292C152.504 292 151.554 293.15 151.554 295.45V314.55C151.554 316.85 152.504 318 154.404 318ZM170.579 292.5H164.829V287.5H181.829V292.5H176.079V322.5H170.579V292.5ZM184.491 287.5H189.991V322.5H184.491V287.5ZM192.661 287.5H198.211L201.811 314.65H201.911L205.511 287.5H210.561L205.261 322.5H197.961L192.661 287.5ZM216.036 287.5H223.486L229.186 322.5H223.686L222.686 315.55V315.65H216.436L215.436 322.5H210.336L216.036 287.5ZM222.036 310.9L219.586 293.6H219.486L217.086 310.9H222.036ZM233.86 292.5H228.11V287.5H245.11V292.5H239.36V322.5H233.86V292.5ZM247.773 287.5H253.273V322.5H247.773V287.5ZM265.342 323C262.642 323 260.575 322.233 259.142 320.7C257.708 319.167 256.992 317 256.992 314.2V295.8C256.992 293 257.708 290.833 259.142 289.3C260.575 287.767 262.642 287 265.342 287C268.042 287 270.108 287.767 271.542 289.3C272.975 290.833 273.692 293 273.692 295.8V314.2C273.692 317 272.975 319.167 271.542 320.7C270.108 322.233 268.042 323 265.342 323ZM265.342 318C267.242 318 268.192 316.85 268.192 314.55V295.45C268.192 293.15 267.242 292 265.342 292C263.442 292 262.492 293.15 262.492 295.45V314.55C262.492 316.85 263.442 318 265.342 318ZM277.411 287.5H284.311L289.661 308.45H289.761V287.5H294.661V322.5H289.011L282.411 296.95H282.311V322.5H277.411V287.5Z" fill="black"/>
<defs>
<clipPath id="clip0_5_23">
<rect width="150" height="150" fill="white" transform="translate(132.5 77.5)"/>
</clipPath>
</defs>
</svg>
