<svg width="415" height="415" viewBox="0 0 415 415" fill="none" xmlns="http://www.w3.org/2000/svg">
<rect x="1.5" y="1.5" width="412" height="412" rx="98.5" fill="#A9DBE0"/>
<rect x="1.5" y="1.5" width="412" height="412" rx="98.5" stroke="#A9DBE0" stroke-width="3"/>
<g clip-path="url(#clip0_5_47)">
<path d="M282.5 152.5C282.5 142.651 280.56 132.898 276.791 123.799C273.022 114.699 267.497 106.431 260.533 99.467C253.569 92.5026 245.301 86.9781 236.201 83.209C227.102 79.4399 217.349 77.5 207.5 77.5C197.651 77.5 187.898 79.4399 178.799 83.209C169.699 86.9781 161.431 92.5026 154.467 99.467C147.503 106.431 141.978 114.699 138.209 123.799C134.44 132.898 132.5 142.651 132.5 152.5C132.5 162.349 134.44 172.102 138.209 181.201C141.978 190.301 147.503 198.569 154.467 205.533C161.431 212.497 169.699 218.022 178.799 221.791C187.898 225.56 197.651 227.5 207.5 227.5C217.349 227.5 227.102 225.56 236.201 221.791C245.301 218.022 253.569 212.497 260.533 205.533C267.497 198.569 273.022 190.301 276.791 181.201C280.56 172.102 282.5 162.349 282.5 152.5ZM107.5 152.5C107.5 125.978 118.036 100.543 136.789 81.7893C155.543 63.0357 180.978 52.5 207.5 52.5C234.022 52.5 259.457 63.0357 278.211 81.7893C296.964 100.543 307.5 125.978 307.5 152.5C307.5 179.022 296.964 204.457 278.211 223.211C259.457 241.964 234.022 252.5 207.5 252.5C180.978 252.5 155.543 241.964 136.789 223.211C118.036 204.457 107.5 179.022 107.5 152.5ZM207.5 183.75C215.788 183.75 223.737 180.458 229.597 174.597C235.458 168.737 238.75 160.788 238.75 152.5C238.75 144.212 235.458 136.263 229.597 130.403C223.737 124.542 215.788 121.25 207.5 121.25C199.212 121.25 191.263 124.542 185.403 130.403C179.542 136.263 176.25 144.212 176.25 152.5C176.25 160.788 179.542 168.737 185.403 174.597C191.263 180.458 199.212 183.75 207.5 183.75ZM207.5 96.25C222.418 96.25 236.726 102.176 247.275 112.725C257.824 123.274 263.75 137.582 263.75 152.5C263.75 167.418 257.824 181.726 247.275 192.275C236.726 202.824 222.418 208.75 207.5 208.75C192.582 208.75 178.274 202.824 167.725 192.275C157.176 181.726 151.25 167.418 151.25 152.5C151.25 137.582 157.176 123.274 167.725 112.725C178.274 102.176 192.582 96.25 207.5 96.25ZM195 152.5C195 149.185 196.317 146.005 198.661 143.661C201.005 141.317 204.185 140 207.5 140C210.815 140 213.995 141.317 216.339 143.661C218.683 146.005 220 149.185 220 152.5C220 155.815 218.683 158.995 216.339 161.339C213.995 163.683 210.815 165 207.5 165C204.185 165 201.005 163.683 198.661 161.339C196.317 158.995 195 155.815 195 152.5Z" fill="black"/>
</g>
<path d="M94.05 312.5H102.15C104.883 312.5 106.933 313.233 108.3 314.7C109.667 316.167 110.35 318.317 110.35 321.15V324.6C110.35 327.433 109.667 329.583 108.3 331.05C106.933 332.517 104.883 333.25 102.15 333.25H99.55V347.5H94.05V312.5ZM102.15 328.25C103.05 328.25 103.717 328 104.15 327.5C104.617 327 104.85 326.15 104.85 324.95V320.8C104.85 319.6 104.617 318.75 104.15 318.25C103.717 317.75 103.05 317.5 102.15 317.5H99.55V328.25H102.15ZM113.337 312.5H128.337V317.5H118.837V326.75H126.387V331.75H118.837V342.5H128.337V347.5H113.337V312.5ZM131.501 312.5H139.651C142.485 312.5 144.551 313.167 145.851 314.5C147.151 315.8 147.801 317.817 147.801 320.55V322.7C147.801 326.333 146.601 328.633 144.201 329.6V329.7C145.535 330.1 146.468 330.917 147.001 332.15C147.568 333.383 147.851 335.033 147.851 337.1V343.25C147.851 344.25 147.885 345.067 147.951 345.7C148.018 346.3 148.185 346.9 148.451 347.5H142.851C142.651 346.933 142.518 346.4 142.451 345.9C142.385 345.4 142.351 344.5 142.351 343.2V336.8C142.351 335.2 142.085 334.083 141.551 333.45C141.051 332.817 140.168 332.5 138.901 332.5H137.001V347.5H131.501V312.5ZM139.001 327.5C140.101 327.5 140.918 327.217 141.451 326.65C142.018 326.083 142.301 325.133 142.301 323.8V321.1C142.301 319.833 142.068 318.917 141.601 318.35C141.168 317.783 140.468 317.5 139.501 317.5H137.001V327.5H139.001ZM158.817 348C156.151 348 154.134 347.25 152.767 345.75C151.401 344.217 150.717 342.033 150.717 339.2V337.2H155.917V339.6C155.917 341.867 156.867 343 158.767 343C159.701 343 160.401 342.733 160.867 342.2C161.367 341.633 161.617 340.733 161.617 339.5C161.617 338.033 161.284 336.75 160.617 335.65C159.951 334.517 158.717 333.167 156.917 331.6C154.651 329.6 153.067 327.8 152.167 326.2C151.267 324.567 150.817 322.733 150.817 320.7C150.817 317.933 151.517 315.8 152.917 314.3C154.317 312.767 156.351 312 159.017 312C161.651 312 163.634 312.767 164.967 314.3C166.334 315.8 167.017 317.967 167.017 320.8V322.25H161.817V320.45C161.817 319.25 161.584 318.383 161.117 317.85C160.651 317.283 159.967 317 159.067 317C157.234 317 156.317 318.117 156.317 320.35C156.317 321.617 156.651 322.8 157.317 323.9C158.017 325 159.267 326.333 161.067 327.9C163.367 329.9 164.951 331.717 165.817 333.35C166.684 334.983 167.117 336.9 167.117 339.1C167.117 341.967 166.401 344.167 164.967 345.7C163.567 347.233 161.517 348 158.817 348ZM170.271 312.5H185.271V317.5H175.771V326.75H183.321V331.75H175.771V342.5H185.271V347.5H170.271V312.5ZM178.271 304.4H184.271L178.921 310.15H174.771L178.271 304.4ZM186.985 312.5H192.535L196.135 339.65H196.235L199.835 312.5H204.885L199.585 347.5H192.285L186.985 312.5ZM207.527 312.5H222.527V317.5H213.027V326.75H220.577V331.75H213.027V342.5H222.527V347.5H207.527V312.5ZM215.527 304.4H221.527L216.177 310.15H212.027L215.527 304.4ZM225.691 312.5H233.841C236.674 312.5 238.741 313.167 240.041 314.5C241.341 315.8 241.991 317.817 241.991 320.55V322.7C241.991 326.333 240.791 328.633 238.391 329.6V329.7C239.724 330.1 240.657 330.917 241.191 332.15C241.757 333.383 242.041 335.033 242.041 337.1V343.25C242.041 344.25 242.074 345.067 242.141 345.7C242.207 346.3 242.374 346.9 242.641 347.5H237.041C236.841 346.933 236.707 346.4 236.641 345.9C236.574 345.4 236.541 344.5 236.541 343.2V336.8C236.541 335.2 236.274 334.083 235.741 333.45C235.241 332.817 234.357 332.5 233.091 332.5H231.191V347.5H225.691V312.5ZM233.191 327.5C234.291 327.5 235.107 327.217 235.641 326.65C236.207 326.083 236.491 325.133 236.491 323.8V321.1C236.491 319.833 236.257 318.917 235.791 318.35C235.357 317.783 234.657 317.5 233.691 317.5H231.191V327.5H233.191ZM250.107 312.5H257.557L263.257 347.5H257.757L256.757 340.55V340.65H250.507L249.507 347.5H244.407L250.107 312.5ZM256.107 335.9L253.657 318.6H253.557L251.157 335.9H256.107ZM265.925 312.5H272.825L278.175 333.45H278.275V312.5H283.175V347.5H277.525L270.925 321.95H270.825V347.5H265.925V312.5ZM295.013 348C292.38 348 290.363 347.25 288.963 345.75C287.596 344.25 286.913 342.133 286.913 339.4V320.6C286.913 317.867 287.596 315.75 288.963 314.25C290.363 312.75 292.38 312 295.013 312C297.646 312 299.646 312.75 301.013 314.25C302.413 315.75 303.113 317.867 303.113 320.6V324.3H297.913V320.25C297.913 318.083 296.996 317 295.163 317C293.33 317 292.413 318.083 292.413 320.25V339.8C292.413 341.933 293.33 343 295.163 343C296.996 343 297.913 341.933 297.913 339.8V334.45H303.113V339.4C303.113 342.133 302.413 344.25 301.013 345.75C299.646 347.25 297.646 348 295.013 348ZM306.404 312.5H321.404V317.5H311.904V326.75H319.454V331.75H311.904V342.5H321.404V347.5H306.404V312.5Z" fill="black"/>
<defs>
<clipPath id="clip0_5_47">
<rect width="200" height="200" fill="white" transform="translate(107.5 52.5)"/>
</clipPath>
</defs>
</svg>
